# xmcd CD Database Entry
#
# Track frame offsets:
# 150
# 13718
# 29729
# 45841
# 58692
# 82390
# 107273
# 123455
# 135015
#
# Disc length: 2117 seconds
#
# Revision: 1
# Processed by: cddbd v1.4PL0 Copyright (c) Steve Scherf et al.
# Submitted via: tcd 2.0b
#
DISCID=6c084309
DTITLE=Jimmy Witherspoon - Kansas City
DYEAR=1900
DGENRE=
TTITLE0=Kansas City
TTITLE1=Ain't Nobody's Business
TTITLE2=Gee Baby Ain't I Been Good To You
TTITLE3=Nobody Knows You
TTITLE4=Goin' To Chicago
TTITLE5=C.C. Rider
TTITLE6=Sweet Lotus Blossom
TTITLE7=Trouble In Mind
TTITLE8=Roll 'Em Pete
EXTD=
EXTT0=
EXTT1=
EXTT2=
EXTT3=
EXTT4=
EXTT5=
EXTT6=
EXTT7=
EXTT8=
PLAYORDER=
